<svg xmlns="http://www.w3.org/2000/svg" id="gds-svg-420" fill="currentColor" stroke="#FFF" viewBox="0 0 24 24" version="1.1" focusable="false" class="location-pin gds-hamburger-nav-primary-left-icon"><g transform="translate(2.000000, 2.000000)"><path d="M10.2342823,11.2534599 C8.2334915,11.2534599 6.58857256,9.77461447 6.39086595,7.88453934 C6.37504943,7.75800712 6.37504943,7.62356663 6.37504943,7.4970344 C6.37504943,5.4250692 8.09905101,3.7485172 10.2421906,3.7485172 C12.3774219,3.7485172 14.1093318,5.4250692 14.1093318,7.4970344 C14.1093318,8.27204429 13.8641756,8.99960459 13.4450376,9.60063266 C12.7491103,10.5970739 11.570779,11.2534599 10.2342823,11.2534599 Z M10.2421906,0 C5.97172796,0 2.5,3.36101226 2.5,7.4970344 C2.5,9.83788059 3.67042309,12.605773 5.96381969,15.7216291 C7.62455516,17.9675761 9.26156584,19.5650455 9.32483195,19.6362198 C9.5778964,19.8734678 9.9100435,20 10.2421906,20 C10.5664294,20 10.8985765,19.881376 11.151641,19.6362198 C11.2228153,19.5650455 12.859826,17.9675761 14.5126532,15.7216291 C16.8139581,12.605773 17.9764729,9.83788059 17.9764729,7.4970344 C17.9764729,3.36101226 14.504745,0 10.2421906,0 Z"/></g></svg>